<svg width="85" height="14" viewBox="0 0 85 14" fill="none" xmlns="http://www.w3.org/2000/svg">
<path d="M80.4943 13.7237C79.2937 10.2584 78.0385 6.82038 76.838 3.35508C75.8557 5.78352 75.1189 8.40296 74.1367 10.8587C74.1094 7.3661 74.1639 3.90079 74.1094 0.408203C77.6293 0.408203 81.1491 0.408203 84.669 0.408203C84.669 4.8558 84.669 9.27611 84.669 13.7237C83.2774 13.7237 81.8858 13.7237 80.4943 13.7237Z" fill="#272B2E"/>
<path d="M76.8142 13.3139C74.1675 13.3958 75.1498 10.2033 75.8592 8.72989C76.6778 7.03817 77.4418 7.82946 77.9875 9.16646C78.5878 10.6672 79.2972 13.4231 76.8142 13.3139Z" fill="#272B2E"/>
<path d="M30.8929 1.82587C30.7019 1.9623 30.5109 2.09873 30.3199 2.23516C28.8192 -0.00227875 25.2174 1.52573 25.9814 4.19974C26.5272 6.38261 30.3199 6.4099 30.5382 4.03603C29.8288 4.03603 29.1193 4.03603 28.4099 4.03603C28.4099 3.79045 28.4099 3.57217 28.4099 3.3266C29.3649 3.3266 30.2926 3.3266 31.2476 3.3266C31.5478 7.25576 25.7359 7.71962 25.2174 3.92688C24.6717 0.707153 29.1739 -0.875426 30.8929 1.82587Z" fill="#272B2E"/>
<path d="M33.9967 12.4401C34.788 10.8575 35.552 9.27496 36.3432 7.69238C36.3978 7.77424 37.3255 13.5316 37.3528 13.7226C37.1073 13.7226 36.889 13.7226 36.6707 13.7226C36.4797 12.3856 36.2614 11.0758 36.0704 9.73882C35.3064 10.9394 34.7061 12.4128 33.9694 13.6953C33.2872 12.3583 32.6051 11.0485 31.9229 9.73882H31.8957C31.6774 11.0758 31.4864 12.3856 31.2954 13.7226C31.0498 13.7226 30.8315 13.7226 30.5859 13.7226C30.9134 11.7034 31.2681 9.71153 31.5955 7.71967H31.6228C32.4141 9.30225 33.2054 10.8848 33.9694 12.4674C33.9694 12.4401 33.9694 12.4401 33.9967 12.4401Z" fill="#272B2E"/>
<path d="M53.1819 6.49276C52.5543 4.99204 51.9267 3.46403 51.2992 1.96331H51.2719C50.6443 3.46403 50.0167 4.99204 49.3891 6.49276H49.3619C48.516 4.50089 47.6974 2.48174 46.8516 0.462587C47.0426 0.435301 47.2336 0.462585 47.4246 0.435299C47.561 0.435299 47.561 0.435297 47.5883 0.544441C48.1886 2.04516 48.7616 3.5186 49.3891 5.01932C50.044 3.49132 50.6443 1.99059 51.2992 0.462587H51.3265C51.954 1.96331 52.5543 3.49132 53.1819 5.01932C53.8095 3.54589 54.3825 2.04517 54.9827 0.571728C55.0373 0.408013 55.0373 0.435299 55.201 0.435299C55.392 0.435299 55.583 0.435299 55.774 0.435299C54.9009 2.45445 54.055 4.44632 53.2092 6.46548C53.1819 6.49276 53.1819 6.49276 53.1819 6.49276Z" fill="#272B2E"/>
<path d="M65.0248 10.6668C64.9156 14.4595 59.4039 14.6778 58.6672 11.3489C57.794 6.68306 64.9975 6.38291 65.0248 10.6668ZM61.805 12.9861C65.2431 12.9588 65.0521 8.02006 61.4776 8.34749C58.2306 8.75678 58.8582 13.0952 61.805 12.9861Z" fill="#272B2E"/>
<path d="M29.9049 10.6397C29.7958 14.5416 24.1203 14.6508 23.52 11.2127C22.8652 6.60143 29.8231 6.49228 29.9049 10.6397ZM26.6852 12.9863C30.1505 12.9317 29.9049 7.99301 26.3578 8.34772C23.0835 8.75701 23.7383 13.1227 26.6852 12.9863Z" fill="#272B2E"/>
<path d="M10.9111 10.2557C11.4022 10.7742 11.8661 11.2926 12.3299 11.811C12.6028 11.5109 12.7938 11.1835 13.0121 10.856C13.1758 10.9652 13.3395 11.0743 13.5032 11.1835C13.2577 11.5655 12.9848 11.9202 12.7119 12.2749C13.0939 12.7388 13.4759 13.2026 13.8579 13.6938C12.6028 13.7756 13.0394 13.6119 12.2754 12.7115C9.81964 15.4128 6.54533 11.9202 10.0652 10.1739C9.65592 9.71003 9.11021 9.24617 9.27392 8.5913C9.43764 7.71816 10.5564 7.47259 11.2931 7.74545C11.8661 7.93645 12.1662 8.40031 12.0844 8.97331C12.0025 9.5736 11.4295 9.9556 10.9111 10.2557ZM10.4199 10.5286C7.82777 11.8383 10.0652 14.1576 11.8934 12.2476C11.4022 11.6746 10.9111 11.1016 10.4199 10.5286ZM10.5564 9.87374C11.1566 9.65546 11.8115 8.75502 10.9929 8.4003C10.4472 8.15473 9.65592 8.59131 10.0106 9.1916C10.1744 9.46446 10.3654 9.65546 10.5564 9.87374Z" fill="#272B2E"/>
<path d="M66.7656 6.54729C66.7656 4.52814 66.7656 2.50899 66.7656 0.489834C68.5392 0.353405 70.8585 0.517121 71.2951 2.61813C71.9227 5.94701 69.6306 6.76558 66.7656 6.54729ZM67.5023 5.81058C68.6756 5.86515 70.2309 5.75601 70.5856 4.39171C71.1859 2.07241 69.7125 0.980982 67.5023 1.1447C67.5023 2.72728 67.5023 4.25528 67.5023 5.81058Z" fill="#272B2E"/>
<path d="M8.86719 6.5476C8.86719 4.52844 8.86719 2.50929 8.86719 0.490137C11.7868 0.244564 14.0242 1.145 13.3966 4.50116C12.9328 6.5476 10.5589 6.62945 8.86719 6.5476ZM9.57662 5.81088C11.5412 5.97459 13.0419 5.26517 12.7691 3.05501C12.6326 1.47243 10.9136 1.00857 9.57662 1.17228C9.57662 2.72758 9.57662 4.25559 9.57662 5.81088Z" fill="#272B2E"/>
<path d="M32.9907 6.54574C32.7451 6.54574 32.5268 6.54574 32.2812 6.54574C32.2812 4.52659 32.2812 2.53472 32.2812 0.488281C33.8365 2.01629 35.3645 3.5443 36.8926 5.07231C36.9471 3.5443 36.8926 2.01629 36.9198 0.488281C37.1654 0.488281 37.3837 0.488281 37.6293 0.488281C37.6293 2.50744 37.6293 4.4993 37.6293 6.54574C36.074 5.01773 34.546 3.48973 32.9907 1.93443C32.9634 3.46244 33.018 4.99045 32.9907 6.54574Z" fill="#272B2E"/>
<path d="M70.6981 12.1944C70.6981 10.6664 70.6981 9.1657 70.6981 7.6377C70.9437 7.6377 71.162 7.6377 71.3803 7.6377C71.4076 7.74684 71.4348 13.3132 71.3803 13.6679C69.825 12.1671 68.3242 10.6119 66.769 9.08385C66.7417 10.6119 66.769 12.1399 66.7417 13.6679C66.4961 13.6679 66.2778 13.6679 66.0595 13.6679C66.0322 13.5587 66.0322 7.8287 66.0595 7.6377C67.6148 9.1657 69.1155 10.6664 70.6435 12.1944C70.6981 12.1944 70.6981 12.1944 70.6981 12.1944Z" fill="#272B2E"/>
<path d="M63.7671 3.65515C64.422 4.61016 65.0768 5.56516 65.7317 6.52017C65.5134 6.52017 64.9677 6.62931 64.8585 6.43831C64.2855 5.56516 63.7398 4.69201 63.1668 3.81887C63.085 3.68244 63.085 3.68244 62.8667 3.70972C62.8667 4.63744 62.8667 5.59245 62.8667 6.54745C62.6211 6.54745 62.4028 6.54745 62.1845 6.54745C62.1572 6.43831 62.1572 0.653706 62.1845 0.48999C62.9212 0.48999 63.6852 0.380847 64.3947 0.62642C65.2133 0.899278 65.5134 1.77243 65.3224 2.56372C65.1587 3.30044 64.4765 3.60058 63.7671 3.65515ZM62.8667 2.94572C63.4397 2.94572 64.2582 3.08215 64.5857 2.48186C65.0495 1.36314 63.7125 1.03571 62.8667 1.19942C62.8667 1.77243 62.8667 2.37272 62.8667 2.94572Z" fill="#272B2E"/>
<path d="M3.19314 0.488281C4.14815 2.50744 5.10316 4.52659 6.03088 6.54574C5.83988 6.54574 5.29416 6.65489 5.2123 6.46389C4.99401 6.0546 4.74844 5.6726 4.53015 5.26331C4.47558 4.96316 2.40185 5.18145 1.99256 5.12688C1.71971 5.09959 1.25585 6.30017 1.03756 6.54574C0.791986 6.54574 0.573698 6.54574 0.328125 6.54574C1.25584 4.52659 2.23814 2.48015 3.19314 0.488281ZM3.19314 2.01629C3.084 2.20729 2.18357 4.3083 2.18357 4.39016C2.42914 4.41745 4.09358 4.41744 4.20272 4.36287C3.87529 3.57158 3.54786 2.80758 3.19314 2.01629Z" fill="#272B2E"/>
<path d="M44.3651 0.461914C45.3201 2.50835 46.2751 4.50022 47.2301 6.51937C47.0119 6.49209 46.5207 6.62852 46.4116 6.41023C46.1933 6.13737 45.8113 5.01865 45.4838 5.10051C44.6926 5.10051 43.874 5.10051 43.0827 5.10051C42.8371 5.53708 42.5915 5.97366 42.346 6.43752C42.2368 6.62852 41.773 6.51937 41.5547 6.51937C42.4551 4.50022 43.4101 2.50835 44.3651 0.461914ZM45.3747 4.39108C45.3474 4.25465 44.4197 2.09906 44.3378 2.01721C44.0104 2.8085 43.6557 3.59979 43.3283 4.39108C44.0377 4.39108 44.6926 4.39108 45.3747 4.39108Z" fill="#272B2E"/>
<path d="M61.1168 6.54666C60.8712 6.51937 60.3801 6.6558 60.2982 6.43752C60.0526 6.00094 59.7798 5.56437 59.5342 5.10051C58.7156 5.10051 57.8971 5.10051 57.0785 5.10051C56.9693 5.10051 56.9148 5.12779 56.8602 5.20965C56.6419 5.61894 56.3964 6.00094 56.1781 6.41023C56.0143 6.62852 55.6323 6.4648 55.4141 6.51937C56.2872 4.50022 57.2968 2.45378 58.2245 0.461914C59.2068 2.50835 60.1618 4.50022 61.1168 6.54666ZM57.2149 4.39108C57.8971 4.39108 58.5792 4.39108 59.2614 4.39108C59.2341 4.25465 58.3064 2.12635 58.2245 2.01721C57.8971 2.8085 57.5424 3.59979 57.2149 4.39108Z" fill="#272B2E"/>
<path d="M14.5434 0.461914C15.6075 0.461914 16.6717 0.461914 17.7358 0.461914C17.7631 0.571058 17.7631 1.00763 17.7358 1.17134C16.9172 1.17134 16.0987 1.17134 15.2528 1.17134C15.2528 1.77163 15.2528 2.34464 15.2528 2.94493C16.0714 2.97221 16.9172 2.94493 17.7358 2.94493C17.7358 3.1905 17.7358 3.40879 17.7358 3.65436C16.9172 3.65436 16.0714 3.65436 15.2528 3.65436C15.2528 4.36379 15.2528 5.07322 15.2528 5.80994C16.0714 5.80994 16.89 5.80994 17.7358 5.80994C17.7358 6.05551 17.7358 6.2738 17.7358 6.49209C17.6267 6.51937 14.7344 6.51937 14.5434 6.49209C14.5434 6.43752 14.5161 0.652915 14.5434 0.461914Z" fill="#272B2E"/>
<path d="M45.8693 10.1207C45.8693 10.3662 45.8693 10.5845 45.8693 10.8301C45.0507 10.8301 44.2321 10.8301 43.4135 10.8301C43.3863 10.9392 43.359 12.7947 43.4135 12.9857C44.2321 12.9857 45.0507 12.9857 45.8966 12.9857C45.8966 13.2313 45.8966 13.4495 45.8966 13.6678C45.8147 13.6951 42.9224 13.6951 42.7314 13.6678C42.7041 13.5587 42.7041 7.85594 42.7314 7.63765C42.8405 7.61037 45.7328 7.61037 45.9239 7.63765C45.9239 7.85594 45.9239 8.07423 45.9239 8.3198C45.1053 8.34708 44.2594 8.3198 43.4408 8.3198C43.4408 8.92009 43.4408 9.52038 43.4408 10.1207C44.2048 10.148 45.0234 10.1207 45.8693 10.1207Z" fill="#272B2E"/>
<path d="M22.7583 8.92106C21.1211 7.6932 17.9287 8.48449 18.1197 10.8584C18.3107 13.0685 21.1757 13.5051 22.731 12.4137C22.8128 13.3414 22.6491 13.2322 21.8578 13.5051C20.2753 14.0235 18.2834 13.4505 17.6012 11.8407C16.4552 9.22121 19.3475 6.79277 22.0761 7.85691C22.8401 8.21163 22.7583 8.10249 22.7583 8.92106Z" fill="#272B2E"/>
<path d="M38.3906 13.6959C38.3906 11.6768 38.3906 9.65762 38.3906 7.63846C39.1273 7.63846 39.9186 7.55661 40.6281 7.82947C41.4466 8.12961 41.7195 9.03004 41.5558 9.84862C41.3648 10.9946 40.0824 11.2675 39.1001 11.2129C39.0728 12.0588 39.1001 12.8774 39.1001 13.7232C38.8545 13.6959 38.6362 13.6959 38.3906 13.6959ZM39.1273 10.4762C40.0005 10.5308 41.0374 10.4216 40.9009 9.3029C40.9009 8.37518 39.8368 8.32061 39.1273 8.3479C39.1273 9.05733 39.1273 9.76676 39.1273 10.4762Z" fill="#272B2E"/>
<path d="M19.0726 5.12786C19.4546 5.83729 20.3004 5.94643 21.0098 5.72814C21.7466 5.48257 21.883 4.50028 21.2827 4.06371C20.4368 3.38156 18.7178 3.21785 18.7997 1.82627C18.8543 0.270975 21.2827 -0.0291729 22.0194 1.22598C21.8557 1.33512 21.7193 1.41698 21.5829 1.49884C20.7916 0.789403 18.8543 1.19869 19.7274 2.42656C20.4641 2.99956 21.4191 3.21784 22.0194 3.95456C23.029 5.15514 21.7739 6.73772 20.355 6.49215C19.7274 6.46486 19.1271 6.11015 18.8543 5.53714C18.7451 5.40071 18.9907 5.29157 19.0726 5.12786Z" fill="#272B2E"/>
<path d="M47.6142 8.3198C47.123 8.3198 46.6592 8.3198 46.1953 8.3198C46.1953 8.07423 46.1953 7.85594 46.1953 7.63765C46.3045 7.61037 49.606 7.61037 49.7425 7.63765C49.7425 7.85594 49.7425 8.07423 49.7425 8.3198C49.2786 8.3198 48.8148 8.3198 48.3236 8.3198C48.2963 10.1207 48.3236 11.8942 48.3236 13.6678C48.078 13.6678 47.8597 13.6678 47.6142 13.6678C47.6142 11.8942 47.6415 10.1207 47.6142 8.3198Z" fill="#272B2E"/>
<path d="M52.2266 8.3198C52.2266 8.07423 52.2266 7.85594 52.2266 7.63765C52.3357 7.61037 55.5282 7.61037 55.7737 7.63765C55.801 7.7468 55.801 8.15608 55.7737 8.3198C55.3099 8.3198 54.846 8.3198 54.3822 8.3198C54.3549 10.1207 54.3822 11.8942 54.3822 13.6678C54.1366 13.6678 53.9183 13.6678 53.6727 13.6678C53.6727 11.8942 53.6727 10.1207 53.6727 8.3198C53.1543 8.3198 52.6904 8.3198 52.2266 8.3198Z" fill="#272B2E"/>
<path d="M57.5191 13.6952C57.3008 13.6952 57.0825 13.6952 56.8642 13.6952C56.8369 13.586 56.8369 7.80141 56.8642 7.6377C57.0825 7.6377 57.3008 7.6377 57.5191 7.6377C57.5464 7.71955 57.5464 13.5314 57.5191 13.6952Z" fill="#272B2E"/>
<path d="M24.1196 6.54574C23.8741 6.54574 23.6558 6.54574 23.4375 6.54574C23.4375 4.52659 23.4375 2.50744 23.4375 0.488281C23.6831 0.488281 23.9014 0.488281 24.1196 0.488281C24.1196 2.50744 24.1196 4.4993 24.1196 6.54574Z" fill="#272B2E"/>
<path d="M51.5181 13.6952C51.2998 13.6952 51.0815 13.6952 50.8359 13.6952C50.8359 11.676 50.8359 9.65685 50.8359 7.6377C51.0542 7.6377 51.2725 7.6377 51.5181 7.6377C51.5181 7.71955 51.5454 13.5042 51.5181 13.6952Z" fill="#272B2E"/>
<path d="M6.38585 2.9713C6.24942 2.91672 6.14028 2.86215 5.97656 2.80758C6.22214 2.04358 6.49499 1.25229 6.74056 0.488281C6.95885 0.597425 7.17714 0.679284 7.39543 0.788427C7.068 1.49786 6.74057 2.23458 6.38585 2.9713Z" fill="#272B2E"/>
</svg>
