<svg width="64" height="18" viewBox="0 0 64 18" fill="none" xmlns="http://www.w3.org/2000/svg">
<path d="M27.776 11.5052L26.9029 13.9336C26.9029 14.0428 26.7938 14.0428 26.7938 14.0428H25.4295C25.3203 14.0428 25.3203 14.0428 25.3203 13.9336C26.1116 11.8872 27.2576 8.36729 28.158 6.048C28.158 5.93885 28.2672 5.74785 28.2672 5.2567C28.2672 5.14756 28.2672 5.14756 28.3763 5.14756H30.2318C30.3409 5.03842 30.3409 5.14756 30.3409 5.14756C31.3232 7.98529 32.4965 10.9867 33.4515 13.8245C33.4515 13.9336 33.4515 13.9336 33.3424 13.9336H31.7871C31.6779 13.9336 31.6779 13.9336 31.6779 13.8245L30.8048 11.396H27.776V11.5052ZM30.5046 10.1409C30.2045 9.26773 29.5223 7.41229 29.3313 6.43C29.1403 7.30314 28.54 8.85844 28.158 10.1409H30.5046ZM34.3246 10.7139C34.3246 8.77658 35.7981 7.194 38.1174 7.194C38.4175 7.194 38.6904 7.194 38.9087 7.30314V4.38356C38.9087 4.27441 38.9087 4.27441 39.0178 4.27441H40.4913C40.6004 4.27441 40.6004 4.27441 40.6004 4.38356V12.3783C40.6004 12.6785 40.6004 13.0605 40.6004 13.2515C40.6004 13.3606 40.6004 13.3606 40.4913 13.3606C39.6181 13.7426 38.6358 14.0428 37.7627 14.0428C35.6889 14.1246 34.3246 13.0605 34.3246 10.7139ZM38.7995 8.66744C38.6085 8.55829 38.3084 8.55829 38.0082 8.55829C36.7531 8.55829 35.9618 9.34958 35.9618 10.7139C35.9618 12.2692 36.8349 12.8695 37.8991 12.8695C38.1992 12.8695 38.5812 12.7603 38.8814 12.7603V8.66744H38.7995ZM48.7316 10.632C48.7316 12.7876 47.3673 14.1519 45.43 14.1519C43.0834 14.1519 42.1284 12.4056 42.1284 10.7412C42.1284 8.69472 43.4927 7.33043 45.5391 7.33043C47.5583 7.22129 48.7316 8.77658 48.7316 10.632ZM43.7656 10.632C43.7656 11.9963 44.3386 12.8695 45.43 12.8695C46.3031 12.8695 46.9853 12.2965 46.9853 10.632C46.9853 9.37687 46.4941 8.39458 45.3209 8.39458C44.4477 8.47643 43.7656 9.26773 43.7656 10.632ZM51.6512 4.38356C51.7603 4.38356 51.7603 4.38356 51.7603 4.4927V7.60329C52.2515 7.41229 52.7426 7.30314 53.2338 7.30314C55.0892 7.30314 56.2625 8.66744 56.2625 10.4137C56.2625 12.7603 54.407 14.2065 52.2787 14.2065C51.5966 14.2065 50.9145 14.0973 50.2323 13.9063C50.1232 13.9063 50.1232 13.7972 50.1232 13.7972V4.43813C50.1232 4.32898 50.1232 4.32898 50.2323 4.32898H51.6512V4.38356ZM52.9336 8.58558C52.5516 8.58558 52.1423 8.69472 51.8695 8.77658V12.7603C52.0605 12.8695 52.3606 12.8695 52.6607 12.8695C53.643 12.8695 54.8163 12.0782 54.8163 10.5229C54.6799 9.26773 53.9159 8.58558 52.9336 8.58558ZM59.3731 11.014C59.3731 12.0782 60.0552 12.7603 61.4195 12.7603C61.9107 12.7603 62.4837 12.6512 63.0839 12.4602C63.0839 12.4602 63.1931 12.4602 63.1931 12.5693V13.6335C63.1931 13.7426 63.1931 13.7426 63.0839 13.8245C62.5928 14.1246 61.9107 14.2065 61.0375 14.2065C58.6091 14.2065 57.6268 12.542 57.6268 10.7957C57.6268 8.85844 58.8001 7.27586 60.8465 7.27586C62.8929 7.27586 63.6842 8.83115 63.6842 10.1136C63.6842 10.6866 63.5751 10.9867 63.5751 10.9867C63.3841 10.9867 62.8929 10.9867 62.1017 10.9867H59.3731V11.014ZM61.5014 9.94987C61.9925 9.94987 62.0744 9.84073 62.0744 9.84073C62.0744 9.84073 62.0744 9.73159 62.0744 9.64973C62.0744 9.26773 61.7742 8.39458 60.7101 8.39458C59.8369 8.39458 59.3458 9.07673 59.2366 9.94987H61.5014Z" fill="#272B2E"/>
<path d="M11.5965 0.920898L18.418 17.2106V0.920898H11.5965ZM0 0.920898V17.2106L6.82146 0.920898H0ZM6.24846 13.8817H9.35905L10.7233 17.1833H13.5611L9.16805 6.86922L6.24846 13.8817Z" fill="#272B2E"/>
</svg>
