<svg width="58" height="12" viewBox="0 0 58 12" fill="none" xmlns="http://www.w3.org/2000/svg">
<path d="M5.57167 0.799805C6.06282 0.799805 6.49939 0.827091 6.90868 0.936234C7.31797 1.01809 7.64539 1.15452 7.94554 1.34552C8.24568 1.53652 8.46397 1.78209 8.62769 2.13681C8.76411 2.46424 8.84597 2.87353 8.84597 3.33739C8.84597 3.85582 8.73683 4.31967 8.46397 4.6471C8.24569 4.97453 7.86368 5.27468 7.42711 5.49297C8.05468 5.68397 8.54583 6.0114 8.84597 6.47526C9.14612 6.91183 9.33712 7.48484 9.33712 8.11241C9.33712 8.63084 9.22797 9.0947 9.03697 9.44942C8.84597 9.83142 8.54583 10.1588 8.2184 10.3771C7.89097 10.5954 7.48168 10.7864 7.01782 10.8956C6.58125 11.0047 6.11739 11.0866 5.68081 11.0866H0.6875V0.799805H5.57167ZM5.27153 4.97454C5.68081 4.97454 6.00824 4.86539 6.2811 4.67439C6.55396 4.48339 6.6631 4.15596 6.6631 3.74667C6.6631 3.52839 6.63582 3.3101 6.55396 3.14638C6.4721 3.00995 6.36296 2.87353 6.22653 2.76438C6.0901 2.68252 5.92639 2.62796 5.73538 2.57339C5.54438 2.5461 5.35338 2.5461 5.1351 2.5461H2.97951V4.97454H5.27153ZM5.38067 9.36756C5.59896 9.36756 5.81724 9.34027 6.00824 9.2857C6.19924 9.25842 6.39025 9.17656 6.52667 9.06742C6.6631 8.95827 6.79953 8.84913 6.90868 8.65813C6.99053 8.46713 7.0451 8.24884 7.0451 7.97598C7.0451 7.45755 6.90868 7.07555 6.60853 6.82997C6.30839 6.61169 5.8991 6.50255 5.40795 6.50255H2.95223V9.36756H5.38067ZM12.5841 9.34028C12.8843 9.64042 13.3209 9.77685 13.9211 9.77685C14.3304 9.77685 14.7124 9.66771 15.0126 9.47671C15.3127 9.25842 15.5037 9.04013 15.5583 8.79456H17.3864C17.0863 9.69499 16.6497 10.3226 16.0494 10.7319C15.4492 11.1139 14.7397 11.3321 13.8939 11.3321C13.2936 11.3321 12.7751 11.223 12.284 11.032C11.7928 10.841 11.4381 10.5954 11.0834 10.2134C10.756 9.886 10.4831 9.47671 10.3467 8.98556C10.1557 8.49442 10.0738 7.97598 10.0738 7.37569C10.0738 6.82997 10.1557 6.28426 10.3467 5.8204C10.5377 5.32926 10.7833 4.91997 11.138 4.56525C11.4654 4.23782 11.8747 3.93768 12.3386 3.74667C12.8297 3.55567 13.3209 3.44653 13.8939 3.44653C14.5214 3.44653 15.0944 3.55567 15.5583 3.82853C16.0494 4.10139 16.4042 4.37425 16.7043 4.83811C17.0044 5.2474 17.2227 5.73855 17.3864 6.25698C17.4683 6.77541 17.4956 7.29384 17.4683 7.89413H12.0657C12.0657 8.49442 12.284 9.04013 12.5841 9.34028ZM14.9307 5.4384C14.6579 5.16554 14.2486 5.02911 13.7847 5.02911C13.4573 5.02911 13.1844 5.11097 12.9661 5.22011C12.7479 5.32925 12.5841 5.49297 12.4477 5.6294C12.3113 5.76583 12.2294 5.95683 12.1748 6.14783C12.1476 6.33883 12.093 6.47526 12.093 6.63898H15.4492C15.3673 6.06597 15.2036 5.68397 14.9307 5.4384ZM20.3606 0.799805V4.67439H20.3879C20.6608 4.23782 20.9882 3.93768 21.3975 3.74667C21.8068 3.55567 22.1888 3.44653 22.598 3.44653C23.1438 3.44653 23.6076 3.52839 23.9351 3.66482C24.2625 3.80125 24.5626 4.04682 24.7536 4.29239C24.9446 4.56525 25.0811 4.89268 25.1629 5.27468C25.2448 5.65669 25.2721 6.06598 25.2721 6.52984V11.1139H23.2256V6.91184C23.2256 6.28426 23.1165 5.8204 22.9255 5.52026C22.7345 5.22011 22.407 5.08368 21.9159 5.08368C21.3702 5.08368 20.9336 5.27469 20.7153 5.57483C20.4425 5.90226 20.3333 6.47526 20.3333 7.21198V11.1139H18.2869V0.799805H20.3606ZM26.7728 4.75625C26.9911 4.42882 27.2639 4.21053 27.5914 3.96496C27.9188 3.77396 28.3008 3.63753 28.7101 3.55567C29.1194 3.47381 29.5287 3.44653 29.9379 3.44653C30.3199 3.44653 30.6747 3.47382 31.084 3.52839C31.466 3.55568 31.8207 3.66481 32.1208 3.82853C32.4482 3.96496 32.6665 4.21054 32.9121 4.45611C33.1031 4.72897 33.2122 5.08368 33.2122 5.54754V9.44942C33.2122 9.77685 33.2395 10.1316 33.2941 10.4317C33.3214 10.7319 33.4305 10.9774 33.567 11.1411H31.4932C31.4114 11.0593 31.3841 10.9229 31.3568 10.8137C31.3295 10.7046 31.3295 10.5409 31.3295 10.4317C31.0021 10.7591 30.6201 10.9774 30.1835 11.1411C29.7469 11.2776 29.2831 11.3321 28.8465 11.3321C28.4645 11.3321 28.1644 11.3049 27.8369 11.1957C27.5368 11.1139 27.2912 10.9774 27.0184 10.7864C26.8001 10.5954 26.6091 10.3771 26.4726 10.077C26.3635 9.77685 26.2816 9.47671 26.2816 9.06742C26.2816 8.65813 26.3635 8.27613 26.4999 8.03056C26.6364 7.7577 26.8274 7.53941 27.0456 7.34841C27.2639 7.21198 27.5641 7.04826 27.8642 6.9664C28.1644 6.88455 28.4645 6.82998 28.7919 6.77541L29.6924 6.66627C29.9925 6.63898 30.2381 6.5844 30.4837 6.55711C30.7019 6.47526 30.893 6.42069 31.0294 6.28426C31.1658 6.17511 31.2204 6.0114 31.2204 5.79311C31.2204 5.57483 31.1931 5.38383 31.1112 5.27468C31.0294 5.16554 30.9202 5.0564 30.8111 4.97454C30.7019 4.89268 30.5382 4.86539 30.4018 4.83811C30.2654 4.81082 30.0744 4.81082 29.8834 4.81082C29.4741 4.81082 29.1739 4.89268 28.9557 5.08368C28.7374 5.27468 28.5737 5.57483 28.5464 5.92954H26.4999C26.4454 5.46568 26.6091 5.0564 26.7728 4.75625ZM30.8384 7.67584C30.7292 7.70312 30.5655 7.75769 30.4291 7.78498C30.2927 7.81226 30.1289 7.81227 29.9379 7.86684C29.8015 7.89413 29.6105 7.89412 29.4468 7.9487L29.0102 8.05784C28.8738 8.08512 28.7101 8.16698 28.6282 8.24884C28.5191 8.3307 28.4372 8.43984 28.3554 8.54899C28.2462 8.68542 28.2462 8.84913 28.2462 9.04013C28.2462 9.23113 28.2735 9.36756 28.3554 9.47671C28.4372 9.58585 28.4918 9.69499 28.6282 9.77685C28.7374 9.85871 28.9011 9.886 29.0375 9.91328C29.1739 9.94057 29.3377 9.94057 29.5287 9.94057C29.9379 9.94057 30.2381 9.85871 30.4564 9.74956C30.6747 9.61313 30.8384 9.44942 30.9475 9.25842C31.0567 9.06742 31.1385 8.87642 31.1385 8.7127C31.1658 8.5217 31.1658 8.38527 31.1658 8.27613V7.48484C31.0567 7.53941 30.9475 7.62127 30.8384 7.67584ZM36.3228 3.63753V4.67439H36.3501C36.623 4.23782 36.9504 3.93768 37.3597 3.74667C37.769 3.55567 38.2056 3.44653 38.6148 3.44653C39.1606 3.44653 39.6244 3.52839 39.9519 3.66482C40.3339 3.80125 40.5794 4.04682 40.7704 4.29239C40.9614 4.56525 41.0979 4.89268 41.207 5.27468C41.2889 5.65669 41.3161 6.06598 41.3161 6.52984V11.1139H39.2697V6.91184C39.2697 6.28426 39.1606 5.8204 38.9696 5.52026C38.7786 5.22011 38.4511 5.02911 37.9327 5.02911C37.387 5.02911 36.9504 5.2474 36.7048 5.57483C36.432 5.90226 36.3228 6.47526 36.3228 7.21198V11.1139H34.2764V3.58296H36.3228V3.63753ZM45.9275 4.97454C45.6 4.97454 45.3272 5.05639 45.1089 5.19282C44.8906 5.32925 44.6996 5.52026 44.5632 5.79311C44.4267 6.0114 44.3449 6.28426 44.263 6.5844C44.1812 6.88455 44.1812 7.13012 44.1812 7.43027C44.1812 7.70312 44.2084 7.97598 44.263 8.24884C44.3449 8.54899 44.3994 8.76728 44.5632 8.98556C44.6996 9.20385 44.8633 9.39485 45.0816 9.53128C45.2999 9.66771 45.5727 9.74956 45.9002 9.74956C46.3913 9.74956 46.746 9.61313 47.0462 9.34028C47.319 9.06742 47.4827 8.7127 47.5373 8.22155H49.5019C49.3655 9.23113 48.9835 9.96785 48.3559 10.4863C47.7283 11.0047 46.9097 11.2776 45.9002 11.2776C45.3545 11.2776 44.8087 11.1684 44.3722 10.9774C43.881 10.7864 43.5263 10.5409 43.1716 10.1861C42.8169 9.83142 42.5713 9.44942 42.3803 8.98556C42.1893 8.49442 42.1074 8.00327 42.1074 7.45755C42.1074 6.85726 42.1893 6.33883 42.3803 5.84769C42.5713 5.35654 42.7896 4.91996 43.117 4.53796C43.4444 4.15596 43.8537 3.91039 44.3176 3.6921C44.8087 3.5011 45.3272 3.39196 45.9275 3.39196C46.364 3.39196 46.7733 3.47381 47.1826 3.58296C47.5919 3.6921 47.9739 3.8831 48.274 4.10139C48.6015 4.31967 48.8743 4.61982 49.0653 5.00183C49.2563 5.32926 49.3655 5.79312 49.3928 6.25698H47.3736C47.319 5.4384 46.8279 4.97454 45.9275 4.97454ZM11.6564 1.50923H15.8312V2.51881H11.6564V1.50923ZM52.6125 9.34028C52.9126 9.64042 53.4038 9.77685 53.9495 9.77685C54.3588 9.77685 54.7408 9.66771 55.0409 9.47671C55.3411 9.25842 55.5321 9.04013 55.5866 8.79456H57.3875C57.0874 9.69499 56.6508 10.3226 56.0505 10.7319C55.4502 11.1139 54.7408 11.3321 53.8949 11.3321C53.2946 11.3321 52.7762 11.223 52.2851 11.032C51.8212 10.8683 51.4119 10.5681 51.0845 10.2134C50.7571 9.886 50.4842 9.47671 50.3478 8.98556C50.1568 8.49442 50.0749 7.97598 50.0749 7.37569C50.0749 6.82997 50.1568 6.28426 50.3478 5.8204C50.5388 5.35654 50.7843 4.91997 51.1391 4.56525C51.4665 4.23782 51.8758 3.93768 52.3396 3.74667C52.8308 3.55567 53.3492 3.44653 53.8949 3.44653C54.5225 3.44653 55.0955 3.55567 55.5321 3.82853C56.0232 4.10139 56.3779 4.37425 56.6781 4.83811C56.9782 5.2474 57.1965 5.73855 57.3602 6.25698C57.4967 6.77541 57.5512 7.3484 57.4967 7.92141H52.0941C52.0941 8.49441 52.3123 9.04013 52.6125 9.34028ZM54.9864 5.4384C54.7135 5.16554 54.3042 5.02911 53.8404 5.02911C53.5129 5.02911 53.2401 5.11097 53.0218 5.22011C52.8035 5.32925 52.6125 5.49297 52.5034 5.6294C52.3942 5.76583 52.2851 5.95683 52.2305 6.14783C52.2032 6.33883 52.1486 6.47526 52.1486 6.63898H55.5048C55.3957 6.06597 55.2319 5.68397 54.9864 5.4384Z" fill="#272B2E"/>
</svg>
