<svg width="85" height="18" viewBox="0 0 85 18" fill="none" xmlns="http://www.w3.org/2000/svg">
<path d="M24.0825 5.74121C24.7374 5.74121 25.2558 5.85036 25.5287 5.98679C25.5832 6.01408 25.5833 6.04136 25.5833 6.09593V6.77808C25.5833 6.83265 25.556 6.85993 25.5287 6.83265C25.2012 6.69622 24.7647 6.55979 24.1098 6.55979C22.4999 6.55979 21.3812 7.67851 21.3812 9.37024C21.3812 11.6077 22.9911 12.1534 24.028 12.1534C24.6828 12.1534 25.2012 12.017 25.6105 11.826C25.6651 11.7987 25.6924 11.826 25.6924 11.8805V12.5354C25.6924 12.59 25.6924 12.6173 25.6378 12.6445C25.2831 12.8355 24.6555 12.972 23.8915 12.972C22.2544 12.972 20.4535 12.017 20.4535 9.39752C20.4262 7.35108 21.8451 5.74121 24.0825 5.74121Z" fill="#272B2E"/>
<path d="M27.5219 7.70588C27.5765 7.70588 27.6038 7.73316 27.6311 7.78773C27.6856 7.92416 27.7129 8.22431 27.7402 8.4426C28.1495 7.89688 28.8044 7.62402 29.3228 7.62402C29.3501 7.62402 29.4319 7.62402 29.4592 7.62402C29.4865 7.62402 29.5138 7.65131 29.5138 7.70588V8.38802C29.5138 8.4426 29.5138 8.4426 29.4319 8.4426C28.7771 8.41531 28.1222 8.77003 27.7675 9.2066V12.7538C27.7675 12.8083 27.7402 12.8356 27.7129 12.8356H26.9489C26.8944 12.8356 26.8671 12.8083 26.8671 12.7538V9.12475C26.8671 8.66089 26.8398 8.0606 26.8125 7.76045C26.8125 7.70588 26.8125 7.70588 26.8671 7.70588H27.5219Z" fill="#272B2E"/>
<path d="M30.959 10.3535C30.9317 11.3903 31.532 12.1543 32.7053 12.1543C33.1145 12.1543 33.5784 12.0998 34.0423 11.8542C34.0696 11.8269 34.0969 11.8542 34.0969 11.9088V12.5091C34.0969 12.5636 34.0968 12.5909 34.0423 12.6182C33.6603 12.8092 33.1964 12.9183 32.5416 12.9183C30.7134 12.9183 30.0312 11.6086 30.0312 10.2716C30.0312 8.7436 30.9044 7.57031 32.4051 7.57031C33.9058 7.57031 34.4788 8.74361 34.4788 9.64404C34.4788 10.0533 34.4243 10.217 34.397 10.2716C34.2333 10.3262 33.824 10.3262 33.2783 10.3262H30.959V10.3535ZM32.9781 9.75318C33.4966 9.75318 33.5784 9.7259 33.6057 9.67133C33.6057 9.64404 33.6057 9.56218 33.6057 9.50761C33.6057 9.15289 33.3601 8.27975 32.3505 8.27975C31.5047 8.27975 31.0681 8.93461 30.9863 9.75318H32.9781Z" fill="#272B2E"/>
<path d="M39.3352 11.8797C39.3352 12.0707 39.3352 12.2071 39.3625 12.3981C39.3625 12.3981 39.3625 12.4254 39.3352 12.4527C38.653 12.8074 37.9982 12.9439 37.316 12.9439C36.1973 12.9439 35.2969 12.4254 35.2969 11.3067C35.2969 10.0516 36.361 9.53312 38.4347 9.61498V9.39669C38.4347 9.09655 38.2983 8.38711 37.2615 8.38711C36.743 8.38711 36.2519 8.52354 35.8153 8.76911C35.788 8.76911 35.7335 8.76912 35.7335 8.71455V8.11425C35.7335 8.05968 35.7335 8.05969 35.788 8.0324C36.2246 7.78683 36.8249 7.65039 37.3979 7.65039C38.7076 7.65039 39.2806 8.49626 39.2806 9.61498V11.8797H39.3352ZM38.4347 10.2425C36.7157 10.1607 36.1973 10.57 36.1973 11.2794C36.1973 11.7706 36.552 12.2344 37.507 12.2344C37.8345 12.2344 38.1892 12.1798 38.462 12.098V10.2425H38.4347Z" fill="#272B2E"/>
<path d="M43.0993 12.6715C43.0993 12.7261 43.0993 12.7534 43.0447 12.7807C42.7991 12.9171 42.4717 12.9444 42.1988 12.9444C41.4348 12.9444 40.9437 12.5624 40.9437 11.5528V8.41495H40.2343C40.1797 8.41495 40.1797 8.38765 40.1797 8.33308V7.78737C40.1797 7.73279 40.207 7.70551 40.2615 7.70551H40.971C40.971 7.32351 41.0255 6.5595 41.0801 6.31393C41.0801 6.25936 41.1074 6.25936 41.1347 6.23208L41.8714 6.06836C41.926 6.06836 41.926 6.06836 41.926 6.12293C41.8714 6.50494 41.8714 7.18708 41.8714 7.70551H43.0174C43.072 7.70551 43.072 7.73279 43.072 7.78737V8.33308C43.072 8.38765 43.0447 8.38766 43.0174 8.41495H41.8441V11.4437C41.8441 11.9348 42.0078 12.2077 42.499 12.2077C42.6627 12.2077 42.8264 12.1804 43.0447 12.0985C43.072 12.0985 43.0993 12.0985 43.0993 12.1531V12.6715Z" fill="#272B2E"/>
<path d="M44.0859 6.28601C44.0859 5.98586 44.3042 5.76758 44.6317 5.76758C44.9591 5.76758 45.1501 5.98586 45.1501 6.28601C45.1501 6.58615 44.9318 6.77716 44.6044 6.77716C44.2769 6.77716 44.0859 6.58615 44.0859 6.28601ZM44.1678 7.78673C44.1678 7.73216 44.1951 7.70488 44.2224 7.70488H44.9864C45.0409 7.70488 45.0682 7.70488 45.0682 7.75945V12.7528C45.0682 12.8073 45.0682 12.8346 44.9864 12.8346H44.2224C44.1678 12.8346 44.1405 12.8073 44.1405 12.7528V7.78673H44.1678Z" fill="#272B2E"/>
<path d="M48.0428 12.8348C47.9883 12.8348 47.961 12.8075 47.961 12.7803C47.7154 12.0981 46.3784 8.52365 46.1328 7.78693C46.1328 7.73236 46.1328 7.70508 46.1874 7.70508H47.0332C47.0878 7.70508 47.0878 7.73237 47.1151 7.75965C48.0428 10.461 48.4521 11.6888 48.5613 12.1254C48.6977 11.6888 49.107 10.5155 50.062 7.75965C50.062 7.70508 50.0893 7.70508 50.1438 7.70508H50.9078C50.9624 7.70508 50.9624 7.73236 50.9624 7.78693C50.635 8.63279 49.2707 12.2345 49.0797 12.7803C49.0797 12.8348 49.0251 12.8348 48.9705 12.8348H48.0428Z" fill="#272B2E"/>
<path d="M52.459 10.3535C52.4317 11.3903 53.032 12.1543 54.2053 12.1543C54.6146 12.1543 55.0784 12.0998 55.5423 11.8542C55.5696 11.8269 55.5969 11.8542 55.5969 11.9088V12.5091C55.5969 12.5636 55.5968 12.5909 55.5423 12.6182C55.1603 12.8092 54.6964 12.9183 54.0416 12.9183C52.2134 12.9183 51.5312 11.6086 51.5312 10.2716C51.5312 8.7436 52.4044 7.57031 53.9051 7.57031C55.4058 7.57031 55.9789 8.74361 55.9789 9.64404C55.9789 10.0533 55.9243 10.217 55.897 10.2716C55.7333 10.3262 55.324 10.3262 54.7783 10.3262H52.459V10.3535ZM54.4781 9.75318C54.9966 9.75318 55.0784 9.7259 55.1057 9.67133C55.1057 9.64404 55.1057 9.56218 55.1057 9.50761C55.1057 9.15289 54.8601 8.27975 53.8505 8.27975C53.0047 8.27975 52.5681 8.93461 52.4863 9.75318H54.4781Z" fill="#272B2E"/>
<path d="M63.0513 5.74023C63.7061 5.74023 64.2246 5.84938 64.4974 5.98581C64.552 6.0131 64.552 6.04038 64.552 6.09496V6.7771C64.552 6.83167 64.5247 6.85895 64.4974 6.83167C64.17 6.69524 63.7334 6.55881 63.0786 6.55881C61.4687 6.55881 60.35 7.67754 60.35 9.36926C60.35 11.6067 61.9598 12.1524 62.9967 12.1524C63.6516 12.1524 64.17 12.016 64.5793 11.825C64.6339 11.7977 64.6612 11.825 64.6612 11.8796V12.5344C64.6612 12.589 64.6611 12.6163 64.6066 12.6436C64.2519 12.8346 63.6243 12.971 62.8603 12.971C61.2231 12.971 59.4223 12.016 59.4223 9.39655C59.395 7.35011 60.8138 5.74023 63.0513 5.74023Z" fill="#272B2E"/>
<path d="M65.8047 5.30354C65.8047 5.24897 65.832 5.22168 65.8865 5.22168H66.6505C66.7051 5.22168 66.7051 5.24897 66.7051 5.30354V11.7703C66.7051 12.1796 66.8688 12.2341 67.0871 12.2341C67.1417 12.2341 67.2508 12.2341 67.3327 12.2069C67.3873 12.2069 67.3873 12.2069 67.3873 12.2614V12.7526C67.3873 12.8072 67.3873 12.8344 67.3327 12.8617C67.2235 12.9163 67.0325 12.9436 66.787 12.9436C66.2685 12.9436 65.832 12.7526 65.832 11.7976V5.30354H65.8047Z" fill="#272B2E"/>
<path d="M73.1184 10.2687C73.1184 11.9059 72.1089 12.9428 70.6627 12.9428C68.8891 12.9428 68.1797 11.5512 68.1797 10.2687C68.1797 8.71344 69.162 7.59473 70.69 7.59473C72.1907 7.59473 73.1184 8.71344 73.1184 10.2687ZM69.1074 10.2415C69.1074 11.3602 69.6531 12.2333 70.69 12.2333C71.454 12.2333 72.1907 11.6876 72.1907 10.296C72.1907 9.23188 71.7541 8.30416 70.6081 8.30416C69.7077 8.30416 69.1074 9.06816 69.1074 10.2415Z" fill="#272B2E"/>
<path d="M78.5497 11.7141C78.5497 12.2871 78.577 12.5327 78.6043 12.7782C78.6043 12.8328 78.6043 12.8328 78.5497 12.8328H77.8403C77.7857 12.8328 77.7857 12.8328 77.7585 12.7782C77.7312 12.6691 77.7039 12.4508 77.7039 12.3144C77.2127 12.7782 76.667 12.942 76.094 12.942C75.2481 12.942 74.375 12.5327 74.375 11.0047V7.78492C74.375 7.73035 74.4023 7.70307 74.4296 7.70307H75.2209C75.2754 7.70307 75.2754 7.73035 75.2754 7.78492V10.8409C75.2754 11.6595 75.6029 12.1507 76.3396 12.1507C76.8307 12.1507 77.2673 11.9597 77.5947 11.5777V7.75764C77.5947 7.70307 77.622 7.67578 77.6766 7.67578H78.4406C78.4952 7.67578 78.4952 7.70307 78.4952 7.75764V11.7141H78.5497Z" fill="#272B2E"/>
<path d="M79.8047 10.3232C79.8047 8.76793 80.9507 7.62192 82.6424 7.62192C82.9426 7.62192 83.2154 7.6492 83.4337 7.73106V5.30262C83.4337 5.24805 83.461 5.24805 83.4883 5.24805H84.2796C84.3341 5.24805 84.3341 5.27534 84.3341 5.30262V11.8239C84.3341 11.9877 84.3341 12.2059 84.3614 12.3424C84.3614 12.3969 84.3614 12.3969 84.3069 12.4515C83.7066 12.7789 83.0244 12.9699 82.3695 12.9699C80.8688 12.9427 79.8047 12.0422 79.8047 10.3232ZM83.4337 8.46778C83.2154 8.35863 82.9426 8.33135 82.6151 8.33135C81.4418 8.33135 80.7324 9.12264 80.7324 10.2686C80.7324 11.6602 81.5783 12.1787 82.4787 12.1787C82.8607 12.1787 83.1881 12.1241 83.4337 12.0422V8.46778Z" fill="#272B2E"/>
<path d="M8.28949 13.2949H6.43405C4.52404 13.2949 2.96875 11.7396 2.96875 9.82956C2.96875 7.91955 4.49676 6.39154 6.40677 6.36426C7.25263 6.36426 8.07121 6.6644 8.69878 7.2374H8.72607L10.1722 8.71084C10.4178 8.95642 10.3905 9.33841 10.1449 9.58399C9.89936 9.82956 9.51736 9.80227 9.27179 9.58399L7.85292 8.13784C6.9252 7.34655 5.53362 7.45569 4.74233 8.38341C4.38761 8.7927 4.19661 9.28385 4.19661 9.80228C4.19661 11.0029 5.23347 12.0397 6.46134 12.0397H6.7342C7.14348 12.6127 8.28949 13.2949 8.28949 13.2949Z" fill="#272B2E"/>
<path d="M14.7236 9.06622C14.7236 10.1849 14.287 11.2491 13.4957 12.0677C12.7317 12.8862 11.6403 13.3228 10.5489 13.3228C9.48472 13.3228 8.39329 12.859 7.57471 12.0131L5.69199 10.1031C5.44642 9.85751 5.44642 9.47551 5.69199 9.22994C5.80114 9.1208 5.96485 9.06622 6.12857 9.06622C6.29228 9.06622 6.45599 9.1208 6.56513 9.25723L8.44787 11.1399C9.04815 11.7402 9.81215 12.0677 10.5489 12.0677C11.3402 12.0677 12.0769 11.7402 12.6226 11.1672C13.1683 10.5942 13.4957 9.83023 13.4957 9.03894C13.4957 7.40178 12.1587 6.09207 10.5489 6.09207C9.9213 6.09207 9.40287 6.20121 8.91172 6.58321C8.91172 6.58321 8.77529 6.50135 8.61157 6.39221C8.50243 6.33764 8.42057 6.28307 8.33872 6.22849C8.25686 6.17392 7.984 6.06478 7.84757 5.98292C7.82029 5.95564 7.76572 5.95563 7.73843 5.92835C8.52972 5.19163 9.48472 4.83691 10.5489 4.83691C12.8409 4.8642 14.7236 6.74692 14.7236 9.06622Z" fill="#272B2E"/>
<path d="M14.3995 0.634766H3.21227C1.52055 0.634766 0.15625 1.99905 0.15625 3.69078V14.4414C0.15625 16.1331 1.52055 17.4974 3.21227 17.4974H14.3995C16.0912 17.4974 17.4555 16.1331 17.4555 14.4414V3.69078C17.4828 1.99905 16.1185 0.634766 14.3995 0.634766ZM10.4703 14.0048H6.48657C5.34057 14.0048 4.24913 13.541 3.48513 12.6951C2.74841 11.9038 2.31184 10.867 2.31184 9.77553C2.31184 7.75638 3.89442 5.60079 6.48657 5.60079C6.65029 5.60079 6.81401 5.60079 6.95044 5.62808C7.7963 4.72764 9.1333 4.15464 10.443 4.15464C11.78 4.15464 13.0898 4.70036 13.9902 5.68265C14.836 6.61037 15.3272 7.81094 15.3272 9.03881C15.3818 11.7947 13.1716 14.0048 10.4703 14.0048Z" fill="#272B2E"/>
</svg>
