<svg width="66" height="14" viewBox="0 0 66 14" fill="none" xmlns="http://www.w3.org/2000/svg">
<path d="M5.65273 9.43983C5.37987 9.79454 5.02515 10.122 4.64315 10.3403C4.26114 10.5585 3.79727 10.6677 3.25156 10.6677C2.7877 10.6677 2.35113 10.5858 1.94184 10.3675C1.58712 10.1765 1.2597 9.90369 1.01413 9.57626C0.768557 9.22154 0.577556 8.83954 0.468413 8.43025C0.359269 7.99368 0.304688 7.52982 0.304688 7.06596C0.304688 5.89267 0.577546 4.96495 1.12326 4.31009C1.66898 3.65523 2.43298 3.3278 3.38799 3.3278C3.76999 3.3278 4.17928 3.40965 4.534 3.57337C4.916 3.73708 5.298 4.03723 5.62543 4.4738V0.87207H6.38943V10.4221H5.62543V9.43983H5.65273ZM5.68001 6.76581C5.68001 6.49295 5.65272 6.2201 5.62543 5.94724C5.59815 5.72895 5.54358 5.53795 5.46172 5.34695C5.37987 5.18323 5.298 5.01952 5.16157 4.88309C5.02514 4.74666 4.88871 4.61023 4.75228 4.50109C4.56128 4.36466 4.343 4.22823 4.12471 4.14637C3.90642 4.06452 3.66086 4.03723 3.41528 4.03723C3.11514 4.03723 2.78771 4.0918 2.51485 4.20094C2.24199 4.31009 1.99641 4.50109 1.80541 4.71937C1.58712 4.99223 1.4234 5.31967 1.34155 5.6471C1.20512 6.11096 1.15055 6.57481 1.17784 7.03867C1.17784 7.61167 1.23241 8.07553 1.36884 8.45754C1.47799 8.78497 1.6417 9.1124 1.85999 9.35797C2.05099 9.57626 2.26927 9.73997 2.54213 9.84912C2.7877 9.93097 3.06056 9.98555 3.30613 9.98555C3.55171 9.98555 3.79728 9.95826 4.04285 9.90369C4.28843 9.82183 4.50671 9.71269 4.725 9.54897C5.02515 9.33068 5.27071 9.00325 5.43443 8.67582C5.59814 8.32111 5.68001 7.88454 5.68001 7.33882V6.76581Z" fill="#272B2E"/>
<path d="M13.1867 8.67529C13.1048 9.24829 12.7774 9.76673 12.3408 10.1214C11.8769 10.5034 11.2221 10.6944 10.3762 10.6944C9.39393 10.6944 8.62992 10.367 8.0842 9.73944C7.53848 9.11187 7.26562 8.23872 7.26562 7.12C7.26562 6.57428 7.34749 6.02857 7.5112 5.51013C7.64763 5.07356 7.86591 4.69156 8.16606 4.33684C8.43891 4.0367 8.76635 3.79112 9.14836 3.62741C9.55764 3.46369 9.96693 3.38184 10.4035 3.38184C10.9492 3.38184 11.3858 3.46369 11.7678 3.65469C12.1225 3.81841 12.4499 4.06398 12.6955 4.36412C12.9411 4.69155 13.1048 5.04627 13.2139 5.42828C13.3231 5.86485 13.3777 6.30142 13.3777 6.738V7.22914H8.00235C8.00235 7.61114 8.05691 7.96586 8.16606 8.32057C8.24791 8.648 8.41164 8.94815 8.60264 9.22101C8.79364 9.46658 9.03922 9.68487 9.33936 9.8213C9.66679 9.98501 9.99421 10.0396 10.3489 10.0396C10.6491 10.0396 10.9492 10.0123 11.2221 9.93044C11.4404 9.87587 11.6314 9.76673 11.8224 9.6303C11.9861 9.52115 12.0952 9.35744 12.2044 9.19373C12.3135 9.03001 12.3681 8.83901 12.4227 8.64801L13.1867 8.67529ZM12.5045 6.54699C12.5045 6.19228 12.4772 5.86485 12.3954 5.51013C12.3135 5.20999 12.2044 4.93713 12.0134 4.69156C11.8497 4.47327 11.6041 4.28227 11.3585 4.17312C11.0584 4.03669 10.7037 3.98212 10.3762 3.98212C9.72136 3.98212 9.17564 4.20041 8.76635 4.6097C8.35706 5.01899 8.11149 5.67385 8.05692 6.51971L12.5045 6.54699Z" fill="#272B2E"/>
<path d="M14.4124 8.56615C14.5216 9.11187 14.7399 9.46658 15.0946 9.71215C15.4493 9.93044 15.9677 10.0396 16.6226 10.0396C17.2774 10.0396 17.7686 9.90316 18.0415 9.65758C18.3143 9.41201 18.4507 9.08458 18.4507 8.72986C18.4507 8.56615 18.4235 8.42972 18.3962 8.29329C18.3689 8.15686 18.287 8.02043 18.1779 7.91129C18.0687 7.77486 17.905 7.66572 17.7413 7.61114C17.4957 7.52929 17.2502 7.44743 17.0046 7.42014L16.1587 7.28371C15.8313 7.22914 15.5039 7.14728 15.1764 7.06543C14.9036 6.98357 14.658 6.87443 14.4397 6.71071C14.2487 6.57428 14.085 6.38328 13.9759 6.16499C13.8667 5.91942 13.8121 5.64656 13.8121 5.34642C13.8121 5.07356 13.8667 4.77341 14.0032 4.52784C14.1396 4.28227 14.3306 4.06398 14.5489 3.90027C14.7944 3.73655 15.0673 3.60012 15.3674 3.51827C15.6949 3.43641 16.0496 3.38184 16.377 3.38184C16.7863 3.38184 17.1683 3.40912 17.5503 3.51827C17.8232 3.60012 18.096 3.73655 18.3143 3.90027C18.5053 4.06398 18.669 4.25498 18.7782 4.47327C18.8873 4.69156 18.9692 4.90984 19.051 5.15542L18.3416 5.31913C18.287 5.12813 18.2052 4.93713 18.096 4.77341C18.0142 4.6097 17.8777 4.50056 17.7413 4.39141C17.5776 4.28227 17.3866 4.20041 17.1956 4.14584C16.6226 4.0367 16.0496 4.03669 15.5039 4.17312C15.2856 4.2277 15.0946 4.30955 14.9309 4.44598C14.7944 4.55513 14.6853 4.69156 14.6307 4.85527C14.5762 4.9917 14.5489 5.15541 14.5489 5.31913C14.5489 5.45556 14.5762 5.61928 14.6034 5.7557C14.6307 5.89213 14.7126 6.00128 14.8217 6.08313C14.9582 6.19228 15.0946 6.27414 15.2856 6.32871C15.5312 6.41057 15.7767 6.46514 16.0496 6.51971L17.1137 6.68342C17.8232 6.81985 18.3689 7.01086 18.7236 7.33829C19.0783 7.63843 19.2693 8.10229 19.2693 8.75715C19.2693 9.03001 19.2148 9.27558 19.1056 9.52115C18.9965 9.76673 18.8328 9.98501 18.6145 10.1487C18.3689 10.3397 18.096 10.4762 17.7959 10.558C17.4139 10.6672 17.0319 10.7217 16.6499 10.7217C16.2679 10.7217 15.8859 10.6944 15.5039 10.6126C15.1764 10.5307 14.8763 10.4216 14.5761 10.2306C14.3306 10.0669 14.1123 9.84858 13.9486 9.57573C13.7849 9.27558 13.6757 8.94815 13.6484 8.59343L14.4124 8.56615Z" fill="#272B2E"/>
<path d="M19.9219 0.927734H20.795V2.10103H19.9219V0.927734ZM19.9765 3.60175H20.7405V10.4778H19.9765V3.60175Z" fill="#272B2E"/>
<path d="M22.5174 11.2133C22.6265 11.6771 22.8448 12.0046 23.145 12.2228C23.4724 12.4411 23.9635 12.5503 24.6457 12.5503C25.4097 12.5503 25.9554 12.3593 26.3101 12.0046C26.6648 11.6226 26.8558 11.0223 26.8558 10.1491V9.11226C26.583 9.49426 26.2556 9.82169 25.8463 10.04C25.4643 10.2583 25.0004 10.3674 24.4547 10.3674C23.9908 10.3674 23.5543 10.2855 23.145 10.0945C22.7902 9.90354 22.4628 9.65797 22.2172 9.33054C21.9717 9.00311 21.7807 8.62111 21.6715 8.23911C21.5624 7.82982 21.5078 7.39324 21.5078 6.95667C21.5078 6.46552 21.5624 5.97438 21.7261 5.51052C21.8625 5.10124 22.0535 4.71923 22.3537 4.3918C22.6265 4.09166 22.954 3.84608 23.336 3.68237C23.7453 3.51865 24.1818 3.40951 24.6184 3.4368C25.0277 3.4368 25.4097 3.51865 25.7917 3.68237C26.1737 3.84608 26.5557 4.14623 26.8831 4.5828V3.65508H27.6471V10.2855C27.6471 11.2133 27.4016 11.95 26.9377 12.4684C26.4738 13.0141 25.7098 13.2597 24.673 13.2597C24.3182 13.2597 23.9362 13.2324 23.5815 13.1506C23.2814 13.096 22.9813 12.9596 22.7084 12.8231C22.4628 12.6594 22.2445 12.4684 22.0808 12.1956C21.9171 11.9227 21.808 11.5953 21.7807 11.2678H22.5174V11.2133ZM26.9104 6.76567C26.9104 6.49281 26.9104 6.21995 26.8558 5.94709C26.8285 5.72881 26.774 5.53781 26.6921 5.34681C26.6103 5.18309 26.5284 5.01938 26.392 4.88295C26.2556 4.74652 26.1191 4.61009 25.9827 4.50094C25.7917 4.36451 25.5734 4.22809 25.3551 4.14623C25.1368 4.06437 24.8913 4.03708 24.6457 4.03708C24.3455 4.03708 24.0181 4.09166 23.7453 4.2008C23.4724 4.30994 23.2268 4.47366 23.0358 4.71923C22.8175 4.99209 22.6538 5.29223 22.5447 5.61966C22.4082 6.02895 22.3537 6.49281 22.381 6.92939C22.381 7.44782 22.4355 7.88439 22.572 8.23911C22.6811 8.56654 22.8448 8.8394 23.0631 9.08497C23.2541 9.30326 23.4997 9.46697 23.7453 9.54883C23.9908 9.65797 24.2637 9.68526 24.5365 9.71254C24.7821 9.71254 25.055 9.68526 25.3006 9.63069C25.5461 9.54883 25.7644 9.43969 25.9554 9.30326C26.2555 9.08497 26.5011 8.75754 26.6648 8.40282C26.8286 8.04811 26.9104 7.58425 26.9104 7.03853V6.76567Z" fill="#272B2E"/>
<path d="M28.6797 3.59909H29.4437V4.71781C29.8257 4.25395 30.2077 3.89923 30.6443 3.68095C31.0536 3.46266 31.5174 3.35352 32.0086 3.35352C32.7999 3.35352 33.3729 3.57181 33.7549 4.00838C34.1369 4.44495 34.3279 5.07252 34.3279 5.86381V10.4478H33.5639V6.0821C33.5639 5.37267 33.4274 4.85424 33.1819 4.52681C32.9363 4.19938 32.527 4.06295 31.954 4.06295C31.6538 4.06295 31.381 4.11752 31.1081 4.22666C30.808 4.33581 30.5351 4.49952 30.2896 4.71781C30.044 4.90881 29.853 5.15438 29.6893 5.42724C29.5528 5.67282 29.4983 6.00025 29.4983 6.43682V10.4751H28.7343V3.59909H28.6797Z" fill="#272B2E"/>
<path d="M35.2344 0.927734H37.1444V2.61946H35.2344V0.927734ZM35.2617 3.4926H37.1444V10.4778H35.2617V3.4926Z" fill="#272B2E"/>
<path d="M42.7588 9.55007C42.2131 10.3141 41.5037 10.6961 40.6032 10.6961C39.6209 10.6961 38.8842 10.3686 38.4204 9.71378C37.9565 9.05892 37.7109 8.1312 37.7109 6.9852C37.7109 6.49405 37.7655 5.97562 37.9292 5.48447C38.0656 5.07519 38.2567 4.6659 38.5295 4.31118C38.7751 3.98375 39.1025 3.73818 39.4845 3.54717C39.8938 3.35617 40.3304 3.27432 40.7669 3.27432C41.1217 3.27432 41.4764 3.32889 41.8038 3.46532C42.1585 3.60175 42.4587 3.82003 42.7588 4.17475V0.927734H44.6416V10.4778H42.8134V9.55007H42.7588ZM42.7042 6.90334C42.7042 6.54862 42.677 6.19391 42.5951 5.83919C42.5405 5.59362 42.4041 5.37533 42.2404 5.18433C42.104 5.02061 41.9129 4.93876 41.7219 4.88418C41.5309 4.82961 41.34 4.80233 41.1489 4.80233C40.9579 4.80233 40.7397 4.82961 40.576 4.91147C40.385 4.99333 40.2212 5.12976 40.0848 5.29347C39.9211 5.48447 39.8119 5.73004 39.7574 5.94833C39.6755 6.27576 39.6209 6.60319 39.6482 6.93062C39.6482 7.28534 39.6755 7.64006 39.7574 7.96749C39.8119 8.21306 39.9211 8.43135 40.0575 8.64963C40.1667 8.81335 40.3304 8.94978 40.5214 9.03164C40.7124 9.11349 40.9034 9.14078 41.0944 9.14078C41.531 9.14078 41.913 9.00435 42.1858 8.75878C42.3768 8.56778 42.5132 8.34949 42.5678 8.10392C42.6497 7.77649 42.7042 7.44906 42.7042 7.12162V6.90334Z" fill="#272B2E"/>
<path d="M51.7124 8.293C51.576 9.08429 51.2758 9.68458 50.7574 10.0666C50.2663 10.4759 49.5295 10.6669 48.5473 10.6669C47.4013 10.6669 46.5281 10.3394 45.9278 9.71187C45.3548 9.08429 45.0547 8.15657 45.0547 6.98328C45.0547 6.43756 45.1365 5.91913 45.3002 5.4007C45.4639 4.96412 45.7095 4.55484 46.0097 4.22741C46.3098 3.89998 46.6918 3.6544 47.1011 3.49069C47.565 3.32697 48.0288 3.24512 48.52 3.24512C49.5841 3.24512 50.4027 3.54526 50.9211 4.17283C51.4669 4.80041 51.7397 5.61899 51.7397 6.65585V7.41985H46.9101C46.9374 7.99286 47.0738 8.42943 47.3467 8.72957C47.6195 9.057 48.0288 9.19344 48.5473 9.19344C49.284 9.19344 49.7206 8.89329 49.857 8.26571L51.7124 8.293ZM49.9934 6.21927C49.9934 5.72813 49.8843 5.37342 49.6387 5.10056C49.3931 4.8277 49.0384 4.69127 48.5473 4.69127C48.329 4.69127 48.1107 4.71855 47.8924 4.80041C47.7014 4.88227 47.565 4.99141 47.4285 5.12784C47.2921 5.26427 47.183 5.42799 47.1284 5.61899C47.0465 5.80999 47.0193 6.00099 47.0193 6.21927H49.9934Z" fill="#272B2E"/>
<path d="M56.4903 9.60479C56.2174 9.90494 55.9173 10.1778 55.5626 10.3688C55.2078 10.5598 54.7713 10.6689 54.2255 10.6689C53.9254 10.6689 53.6252 10.6417 53.3251 10.5598C53.0522 10.4779 52.8067 10.3688 52.5884 10.1778C52.3701 10.0141 52.2064 9.76851 52.0972 9.52294C51.9608 9.22279 51.9062 8.89536 51.9062 8.56793C51.9062 8.07678 52.0154 7.69478 52.2337 7.39464C52.452 7.09449 52.7248 6.84892 53.0795 6.6852C53.4615 6.52149 53.8435 6.38506 54.2528 6.33049C54.6894 6.24863 55.126 6.22135 55.5626 6.19406L56.463 6.16677V5.81206C56.463 5.37548 56.3539 5.10262 56.1083 4.93891C55.8627 4.77519 55.5625 4.69334 55.2624 4.69334C54.5257 4.69334 54.0891 4.96619 53.98 5.5392L52.2609 5.37548C52.3974 4.63877 52.6975 4.12033 53.216 3.7929C53.7344 3.46547 54.4166 3.30176 55.2897 3.30176C55.7536 3.30176 56.2174 3.35633 56.654 3.49276C57.0087 3.6019 57.3088 3.7929 57.5544 4.03848C57.8 4.28405 57.9637 4.58419 58.0456 4.91162C58.1547 5.29362 58.2093 5.67563 58.2093 6.05763V10.4779H56.4357V9.60479H56.4903ZM56.463 7.36735L55.6444 7.39464C55.317 7.39464 55.0168 7.44921 54.6894 7.50378C54.4984 7.55835 54.3074 7.64021 54.1437 7.74935C54.0345 7.83121 53.9254 7.94035 53.8708 8.07678C53.8162 8.21321 53.789 8.34964 53.8163 8.48607C53.8163 8.70436 53.8981 8.89536 54.0618 9.03179C54.2256 9.16822 54.4438 9.22279 54.7167 9.22279C55.2078 9.22279 55.5898 9.11365 55.89 8.89536C56.0537 8.75893 56.1901 8.59522 56.2993 8.4315C56.4084 8.21321 56.463 7.96764 56.463 7.72207V7.36735Z" fill="#272B2E"/>
<path d="M60.387 8.26778C60.4416 8.67707 60.6053 8.94993 60.8782 9.05908C61.1783 9.19551 61.5058 9.25008 61.8332 9.25008C62.2698 9.25008 62.5972 9.1955 62.7882 9.08636C62.9792 8.97722 63.0883 8.78622 63.0883 8.54064C63.0883 8.37693 63.0337 8.21321 62.8973 8.07678C62.7882 7.94035 62.5426 7.8585 62.2152 7.80393L61.2602 7.64021C60.4143 7.50378 59.7867 7.28549 59.3775 6.95806C58.9682 6.63063 58.7499 6.13949 58.7499 5.48463C58.7499 5.1572 58.8317 4.85705 58.9682 4.58419C59.1319 4.31133 59.3229 4.06576 59.5957 3.90205C59.8959 3.71104 60.2233 3.54733 60.5507 3.46547C60.96 3.35633 61.3693 3.30176 61.7786 3.30176C62.2425 3.30176 62.7063 3.35633 63.1702 3.46547C63.4976 3.54733 63.7977 3.71104 64.0979 3.90205C64.3162 4.09305 64.5072 4.31134 64.6436 4.55691C64.7528 4.82977 64.8619 5.10263 64.9165 5.37548L63.252 5.59377C63.1702 5.26634 63.0338 5.04805 62.8428 4.88434C62.6517 4.72062 62.3243 4.66605 61.8877 4.66605C61.6695 4.66605 61.4784 4.69334 61.2602 4.72062C61.1237 4.74791 60.9873 4.80248 60.8782 4.88434C60.7963 4.93891 60.7144 5.02077 60.6872 5.10263C60.6599 5.18448 60.6326 5.23905 60.6326 5.32091C60.6326 5.5392 60.7144 5.70291 60.8509 5.81206C60.9873 5.9212 61.2602 6.00306 61.6694 6.08491L62.5426 6.24863C62.9519 6.3032 63.3612 6.41234 63.7705 6.54877C64.0433 6.65792 64.3162 6.79435 64.5345 7.01264C64.7255 7.17635 64.8619 7.42192 64.9437 7.6675C65.0256 7.94035 65.0529 8.2405 65.0529 8.54064C65.0529 9.1955 64.8073 9.71394 64.2889 10.1232C63.7978 10.5325 63.0065 10.7235 61.9696 10.7235C61.5603 10.7235 61.1783 10.6962 60.769 10.6144C60.4143 10.5598 60.0596 10.4234 59.7594 10.2324C59.4593 10.0414 59.2137 9.79579 59.0227 9.49565C58.8317 9.1955 58.7226 8.78621 58.6953 8.32235L60.387 8.26778Z" fill="#272B2E"/>
</svg>
