<svg width="201" height="26" viewBox="0 0 201 26" fill="none" xmlns="http://www.w3.org/2000/svg">
    <path d="M102.001 6.74609L98.38 20.1269H93.8477L91.7378 11.4462L89.5555 20.1269H85.0472L81.4023 6.74609H85.5028L87.3974 16.314L89.6513 6.74609H93.9917L96.2699 16.2662L98.1403 6.74609H102.001Z" fill="#272B2E"/>
    <path d="M103.859 4.72061C103.404 4.29743 103.176 3.77337 103.176 3.15006C103.176 2.51081 103.404 1.9791 103.859 1.55543C104.315 1.13192 104.902 0.919922 105.622 0.919922C106.325 0.919922 106.904 1.13192 107.36 1.55543C107.816 1.9791 108.044 2.51081 108.044 3.15006C108.044 3.77337 107.816 4.29743 107.36 4.72061C106.904 5.14445 106.325 5.35612 105.622 5.35612C104.902 5.35612 104.315 5.14445 103.859 4.72061ZM107.66 20.1277H103.56V6.74689H107.66V20.1277Z" fill="#272B2E"/>
    <path d="M118.091 16.6513V20.1284H116.005C114.518 20.1284 113.359 19.7649 112.528 19.0373C111.697 18.3098 111.281 17.1229 111.281 15.4762V10.1527H109.65V6.74751H111.281V3.48633H115.381V6.74751H118.068V10.1527H115.381V15.5242C115.381 15.924 115.477 16.2118 115.669 16.3874C115.861 16.5636 116.181 16.6513 116.629 16.6513H118.091Z" fill="#272B2E"/>
    <path d="M132.287 8.12794C133.214 9.14336 133.678 10.5379 133.678 12.3124V20.1299H129.601V12.864C129.601 11.9688 129.369 11.2734 128.906 10.7777C128.442 10.2824 127.818 10.0343 127.036 10.0343C126.252 10.0343 125.629 10.2824 125.165 10.7777C124.701 11.2734 124.47 11.9688 124.47 12.864V20.1299H120.369V2.38477H124.47V8.54771C124.885 7.95646 125.453 7.48463 126.172 7.1327C126.891 6.78143 127.699 6.60523 128.594 6.60523C130.129 6.60523 131.36 7.11302 132.287 8.12794Z" fill="#272B2E"/>
    <path d="M146.018 10.1931C149.45 10.6761 151.636 12.5574 151.636 15.2018C151.636 18.3795 148.84 20.4899 144.619 20.4899H136.891V20.4644H137.018C137.399 20.439 137.78 19.1171 137.78 17.8711V4.04054C137.78 2.79474 137.399 1.4728 137.018 1.44726H136.891V1.42188H144.009C147.721 1.42188 150.213 3.22704 150.213 5.92186C150.213 8.03208 148.611 9.60849 146.018 10.2185V10.1931ZM143.424 9.9897C145.56 9.9897 146.984 8.36253 146.984 5.89647C146.984 3.68456 145.814 2.21016 144.034 2.21016H141.06V9.9897H143.424ZM141.06 19.6509H144.314C146.653 19.6509 148.229 17.8711 148.229 15.1763C148.229 12.4815 146.221 10.7015 143.221 10.7015H141.06V19.6509Z" fill="#272B2E"/>
    <path d="M153.312 20.4899V20.4644H153.439C153.821 20.4388 154.202 19.1171 154.202 17.8711V4.98128C154.202 3.02366 154.024 2.4643 153.312 2.4643V2.43876L156.541 1.42188H157.126V17.8711C157.126 19.1171 157.508 20.4388 157.889 20.4644H158.016V20.4899H153.312Z" fill="#272B2E"/>
    <path d="M160.303 20.4907V20.4651H160.43C160.811 20.4396 161.192 19.1177 161.192 17.8719V11.3378C161.192 9.38034 161.014 8.82081 160.303 8.82081V8.79559L163.531 7.77839H164.116V17.8719C164.116 19.1177 164.498 20.4396 164.879 20.4651H165.006V20.4907H160.303ZM160.532 2.76996C160.532 1.60063 161.32 0.837891 162.489 0.837891C163.658 0.837891 164.447 1.60063 164.447 2.76996C164.447 3.93946 163.658 4.72774 162.489 4.72774C161.32 4.72774 160.532 3.93946 160.532 2.76996Z" fill="#272B2E"/>
    <path d="M175.479 12.2274C175.479 10.4982 174.869 9.35425 173.318 9.35425C172.352 9.35425 171.538 9.43056 171.106 9.55763V17.8969C171.106 19.1427 171.488 20.4646 171.869 20.4902H171.996V20.5155H167.293V20.4902H167.42C167.801 20.4646 168.183 19.1427 168.183 17.8969V11.3628C168.183 9.40502 168.005 8.84581 167.293 8.84581V8.82027L170.522 7.80339H171.106V9.25257C172.225 8.10861 173.954 7.37109 175.581 7.37109C177.615 7.37109 178.403 9.17626 178.403 11.8966V17.8713C178.403 19.1171 178.785 20.4391 179.166 20.4646H179.293V20.4902H174.589V20.4646H174.717C175.098 20.4391 175.479 19.1171 175.479 17.8713V12.2274Z" fill="#272B2E"/>
    <path d="M191.852 17.8713C192.742 19.1171 194.089 20.439 194.471 20.4645H194.623V20.4901H189.183V20.4645H189.309C189.64 20.439 189.132 19.2187 188.292 18.0239L185.242 13.7274L185.089 13.5493V17.8713C185.089 19.1171 185.47 20.439 185.852 20.4645H185.979V20.4901H181.275V20.4645H181.403C181.784 20.439 182.165 19.1171 182.165 17.8713V4.98144C182.165 3.02383 181.988 2.46446 181.275 2.46446V2.43892L184.504 1.42188H185.089V13.4982L188.343 10.1677C189.462 8.9982 190.25 7.82887 189.919 7.80333H189.818V7.77778H192.894V7.80333C192.31 7.80333 190.937 8.82021 189.564 10.0154L187.53 11.8967L191.826 17.8713H191.852Z" fill="#272B2E"/>
    <path d="M197.723 4.47203L200.469 5.23477C201.029 5.36184 201.156 5.8449 200.8 6.42964C200.469 7.03977 199.987 7.16717 199.58 6.76042L197.546 4.72649L198.283 7.52283C198.435 8.05682 198.079 8.41281 197.393 8.41281C196.707 8.41281 196.351 8.05682 196.503 7.52283L197.241 4.75171L195.207 6.76042C194.8 7.16717 194.317 7.03977 193.986 6.42964C193.631 5.8449 193.758 5.36184 194.317 5.23477L197.088 4.47203L194.317 3.70929C193.758 3.58222 193.631 3.09932 193.986 2.48887C194.317 1.90428 194.8 1.77721 195.207 2.18397L197.241 4.19234L196.503 1.42122C196.351 0.88724 196.707 0.53125 197.393 0.53125C198.079 0.53125 198.435 0.88724 198.283 1.42122L197.546 4.21789L199.58 2.18397C199.987 1.77721 200.469 1.90428 200.8 2.48887C201.156 3.09932 201.029 3.58222 200.469 3.70929L197.723 4.47203Z" fill="#272B2E"/>
    <path d="M6.46615 2.54297H0V5.07768H1.56342V17.4883H0V20.0236H6.46615C11.9542 20.0236 15.2303 16.7562 15.2303 11.2833C15.2303 5.97352 11.7902 2.54297 6.46615 2.54297ZM12.364 11.2833C12.364 15.1817 10.2144 17.4176 6.46615 17.4176H4.38218V5.1727H6.46615C10.1592 5.1727 12.364 7.45686 12.364 11.2833Z" fill="#272B2E"/>
    <path d="M23.1164 6.49609C19.457 6.49609 16.6973 9.49011 16.6973 13.4599C16.6973 17.5685 19.3244 20.3289 23.2347 20.3289C26.1499 20.3289 28.4479 18.6992 29.2322 16.0754L29.3694 15.6173L26.642 14.9796L26.5389 15.4171C26.2066 16.8248 24.8884 17.7703 23.2585 17.7703C21.0517 17.7703 19.7155 16.5434 19.5367 14.3837H29.4168V13.2466C29.4168 9.14568 26.9438 6.49609 23.1164 6.49609ZM19.6198 11.9672C19.9601 10.0683 21.5773 9.07848 23.1164 9.07848C24.618 9.07848 26.2511 9.84838 26.5544 11.9672H19.6198Z" fill="#272B2E"/>
    <path d="M36.8562 11.8782C35.0076 11.5323 34.1976 11.286 34.1976 10.3806C34.1976 9.5591 35.0352 9.00722 36.2816 9.00722C37.6956 9.00722 38.6587 9.74377 38.7951 10.9294L38.8558 11.4588L41.3721 10.7297L41.3233 10.3472C40.9855 7.70106 38.5343 6.49609 36.3999 6.49609C33.5128 6.49609 31.4964 8.09333 31.4964 10.3806C31.4964 13.3987 34.002 13.9013 36.0148 14.3054C37.7809 14.6599 38.8633 14.9356 38.8633 16.0888C38.8633 17.1564 37.9604 17.794 36.4476 17.794C34.7588 17.794 33.8417 17.0878 33.7217 15.695L33.6767 15.1687L31.0703 15.82L31.1216 16.2175C31.4487 18.7537 33.4532 20.3289 36.3524 20.3289C39.4838 20.3289 41.5875 18.587 41.5875 15.9941C41.5875 12.765 38.8526 12.2526 36.8562 11.8782Z" fill="#272B2E"/>
    <path d="M43.6465 9.29206H45.9675V20.0219H48.7393V6.80469H43.6465V9.29206Z" fill="#272B2E"/>
    <path d="M47.3415 1.85352C46.3149 1.85352 45.541 2.62748 45.541 3.65396C45.541 4.69395 46.3149 5.478 47.3415 5.478C48.3816 5.478 49.1658 4.69395 49.1658 3.65396C49.1658 2.62748 48.3816 1.85352 47.3415 1.85352Z" fill="#272B2E"/>
    <path d="M61.8814 8.09186C60.8679 7.03203 59.5816 6.49609 58.0444 6.49609C54.2978 6.49609 51.5781 9.39444 51.5781 13.3884C51.5781 17.4747 54.179 20.3288 57.9024 20.3288C59.8819 20.3288 61.1088 19.5003 61.8102 18.7602V21.323C61.8102 22.4283 61.4316 22.8389 60.413 22.8389H54.6101V25.4683H60.3894C63.0929 25.4683 64.5821 24.0637 64.5821 21.5126V6.80392H61.8814V8.09186ZM61.8814 13.3884C61.8814 15.9809 60.3682 17.7228 58.1158 17.7228C55.9266 17.7228 54.3975 15.9404 54.3975 13.3884C54.3975 10.8646 55.946 9.10208 58.1632 9.10208C60.6045 9.10208 61.8814 11.2582 61.8814 13.3884Z" fill="#272B2E"/>
    <path d="M73.9347 6.49609C72.3563 6.49609 71.2081 7.09239 70.4767 7.84179V6.80392H67.7051V20.0209H70.4767V12.228C70.4767 10.4728 71.7702 9.14925 73.4849 9.14925C75.0627 9.14925 76.2083 10.3246 76.2083 11.9438V20.0209H78.98V11.8255C78.98 8.68784 76.9053 6.49609 73.9347 6.49609Z" fill="#272B2E"/>
</svg>
