<svg xmlns="http://www.w3.org/2000/svg" fill="none" viewBox="0 0 1625 1628">
    <path stroke="#fff" stroke-width="2" d="M1620 933a370 370 0 0 0-87-210 509 509 0 0 0-152-131 754 754 0 0 0-304-101c-4 0-4-3-5-5a789 789 0 0 0-125-263c-42-60-94-111-155-152-50-33-104-55-164-64a321 321 0 0 0-262 76 474 474 0 0 0-137 247 670 670 0 0 0-6 255c7 47 18 94 32 140 1 2 1 4-2 7a745 745 0 0 0-153 174 620 620 0 0 0-93 245 480 480 0 0 0 29 234 409 409 0 0 0 174 190 420 420 0 0 0 237 50c14 0 27-2 41-4l44-8c14-3 27-8 40-12a618 618 0 0 0 219-121c39-32 75-68 107-107 3-4 5-5 9-3a809 809 0 0 0 235 21 647 647 0 0 0 291-96 449 449 0 0 0 148-164 402 402 0 0 0 40-141l1-5v-33l-2-19ZM408 462c1-42 6-83 18-123 11-37 28-71 52-100 23-26 51-43 85-48 27-4 54-1 79 9 47 17 86 45 120 81 47 50 81 108 107 171l12 31v2c-161 10-314 52-457 130l-8-45c-5-36-8-72-8-108Zm292 842c-52 49-111 87-179 110-40 13-81 19-123 18-33-1-64-9-95-23s-55-37-76-63C68 1159 332 906 332 906a934 934 0 0 0 381 386l-13 12Zm225-497-3 22c-8 99-32 224-97 314l-1 2a776 776 0 0 1-337-355 955 955 0 0 1 437-118 799 799 0 0 0 2 67l-1 68Zm509 178c-3 32-15 60-31 87a328 328 0 0 1-124 102 421 421 0 0 1-194 39c-16 0-33-2-50-4l-29-3c79-163 112-335 102-516l25 5c47 11 92 29 135 52 39 21 75 46 105 79 22 24 40 51 51 82 8 25 13 51 10 77Z"/>
</svg>